# xmcd
#
# Track frame offsets: 
#        150
#        38522
#        57572
#        72380
#        92752
#        107095
#        124127
#        139140
#        155630
#        187170
#        202147
#        215360
#        233835
#
# Disc length: 3342 seconds
#
# Revision: 0
# Processed by: cddbd v1.5.2PL0 Copyright (c) Steve Scherf et al.
# Submitted via: ExactAudioCopy v0.95b3
#
DISCID=c70d0c0d
DTITLE=Elton John  - Empty Sky (1969) (1995 Bonus Tracks]  FLAC
DYEAR=1900
DGENRE=
TTITLE0=Empty Sky
TTITLE1=Val-Hala
TTITLE2=Western Ford Gateway
TTITLE3=Hymn 2000
TTITLE4=Lady What's Tommorrow
TTITLE5=Sails
TTITLE6=The Scaffold
TTITLE7=Skyline Pigeon
TTITLE8=Gulliver\\Hay Chewed\\Reprise
TTITLE9=Lady Samantha
TTITLE10=All Across The Havens
TTITLE11=It's Me That You Need
TTITLE12=Just Like Strange Rain
EXTD=
EXTT0=
EXTT1=
EXTT2=
EXTT3=
EXTT4=
EXTT5=
EXTT6=
EXTT7=
EXTT8=
EXTT9=
EXTT10=
EXTT11=
EXTT12=
PLAYORDER=
